<?xml version="1.0" encoding="utf-8" standalone="no"?>
<!DOCTYPE svg PUBLIC "-//W3C//DTD SVG 1.1//EN"
  "http://www.w3.org/Graphics/SVG/1.1/DTD/svg11.dtd">
<svg height="720pt" version="1.1" viewBox="0 0 1008 720" width="1008pt" xmlns="http://www.w3.org/2000/svg" xmlns:xlink="http://www.w3.org/1999/xlink">
 <metadata>
  <rdf:RDF xmlns:cc="http://creativecommons.org/ns#" xmlns:dc="http://purl.org/dc/elements/1.1/" xmlns:rdf="http://www.w3.org/1999/02/22-rdf-syntax-ns#">
   <cc:Work>
    <dc:type rdf:resource="http://purl.org/dc/dcmitype/StillImage"/>
    <dc:date>2021-04-05T15:37:26.690457</dc:date>
    <dc:format>image/svg+xml</dc:format>
    <dc:creator>
     <cc:Agent>
      <dc:title>Matplotlib v3.4.1, https://matplotlib.org/</dc:title>
     </cc:Agent>
    </dc:creator>
   </cc:Work>
  </rdf:RDF>
 </metadata>
 <defs>
  <style type="text/css">*{stroke-linecap:butt;stroke-linejoin:round;}</style>
 </defs>
 <g id="figure_1">
  <g id="patch_1">
   <path d="M 0 720 
L 1008 720 
L 1008 0 
L 0 0 
z
" style="fill:#ffffff;"/>
  </g>
  <g id="axes_1">
   <g id="patch_2">
    <path d="M 87.302 195.316 
L 992.448 195.316 
L 992.448 36.552 
L 87.302 36.552 
z
" style="fill:#eaeaf2;"/>
   </g>
   <g id="matplotlib.axis_1">
    <g id="xtick_1">
     <g id="line2d_1">
      <path clip-path="url(#p78595f682b)" d="M 128.445 195.316 
L 128.445 36.552 
" style="fill:none;stroke:#ffffff;stroke-linecap:round;"/>
     </g>
     <g id="text_1">
      <!-- 0 -->
      <g style="fill:#262626;" transform="translate(124.774781 214.264313)scale(0.132 -0.132)">
       <defs>
        <path d="M 266 2259 
Q 266 3072 433 3567 
Q 600 4063 929 4331 
Q 1259 4600 1759 4600 
Q 2128 4600 2406 4451 
Q 2684 4303 2865 4023 
Q 3047 3744 3150 3342 
Q 3253 2941 3253 2259 
Q 3253 1453 3087 958 
Q 2922 463 2592 192 
Q 2263 -78 1759 -78 
Q 1097 -78 719 397 
Q 266 969 266 2259 
z
M 844 2259 
Q 844 1131 1108 757 
Q 1372 384 1759 384 
Q 2147 384 2411 759 
Q 2675 1134 2675 2259 
Q 2675 3391 2411 3762 
Q 2147 4134 1753 4134 
Q 1366 4134 1134 3806 
Q 844 3388 844 2259 
z
" id="ArialMT-30" transform="scale(0.015625)"/>
       </defs>
       <use xlink:href="#ArialMT-30"/>
      </g>
     </g>
    </g>
    <g id="xtick_2">
     <g id="line2d_2">
      <path clip-path="url(#p78595f682b)" d="M 241.165548 195.316 
L 241.165548 36.552 
" style="fill:none;stroke:#ffffff;stroke-linecap:round;"/>
     </g>
     <g id="text_2">
      <!-- 20 -->
      <g style="fill:#262626;" transform="translate(233.82511 214.264313)scale(0.132 -0.132)">
       <defs>
        <path d="M 3222 541 
L 3222 0 
L 194 0 
Q 188 203 259 391 
Q 375 700 629 1000 
Q 884 1300 1366 1694 
Q 2113 2306 2375 2664 
Q 2638 3022 2638 3341 
Q 2638 3675 2398 3904 
Q 2159 4134 1775 4134 
Q 1369 4134 1125 3890 
Q 881 3647 878 3216 
L 300 3275 
Q 359 3922 746 4261 
Q 1134 4600 1788 4600 
Q 2447 4600 2831 4234 
Q 3216 3869 3216 3328 
Q 3216 3053 3103 2787 
Q 2991 2522 2730 2228 
Q 2469 1934 1863 1422 
Q 1356 997 1212 845 
Q 1069 694 975 541 
L 3222 541 
z
" id="ArialMT-32" transform="scale(0.015625)"/>
       </defs>
       <use xlink:href="#ArialMT-32"/>
       <use x="55.615234" xlink:href="#ArialMT-30"/>
      </g>
     </g>
    </g>
    <g id="xtick_3">
     <g id="line2d_3">
      <path clip-path="url(#p78595f682b)" d="M 353.886096 195.316 
L 353.886096 36.552 
" style="fill:none;stroke:#ffffff;stroke-linecap:round;"/>
     </g>
     <g id="text_3">
      <!-- 40 -->
      <g style="fill:#262626;" transform="translate(346.545658 214.264313)scale(0.132 -0.132)">
       <defs>
        <path d="M 2069 0 
L 2069 1097 
L 81 1097 
L 81 1613 
L 2172 4581 
L 2631 4581 
L 2631 1613 
L 3250 1613 
L 3250 1097 
L 2631 1097 
L 2631 0 
L 2069 0 
z
M 2069 1613 
L 2069 3678 
L 634 1613 
L 2069 1613 
z
" id="ArialMT-34" transform="scale(0.015625)"/>
       </defs>
       <use xlink:href="#ArialMT-34"/>
       <use x="55.615234" xlink:href="#ArialMT-30"/>
      </g>
     </g>
    </g>
    <g id="xtick_4">
     <g id="line2d_4">
      <path clip-path="url(#p78595f682b)" d="M 466.606644 195.316 
L 466.606644 36.552 
" style="fill:none;stroke:#ffffff;stroke-linecap:round;"/>
     </g>
     <g id="text_4">
      <!-- 60 -->
      <g style="fill:#262626;" transform="translate(459.266206 214.264313)scale(0.132 -0.132)">
       <defs>
        <path d="M 3184 3459 
L 2625 3416 
Q 2550 3747 2413 3897 
Q 2184 4138 1850 4138 
Q 1581 4138 1378 3988 
Q 1113 3794 959 3422 
Q 806 3050 800 2363 
Q 1003 2672 1297 2822 
Q 1591 2972 1913 2972 
Q 2475 2972 2870 2558 
Q 3266 2144 3266 1488 
Q 3266 1056 3080 686 
Q 2894 316 2569 119 
Q 2244 -78 1831 -78 
Q 1128 -78 684 439 
Q 241 956 241 2144 
Q 241 3472 731 4075 
Q 1159 4600 1884 4600 
Q 2425 4600 2770 4297 
Q 3116 3994 3184 3459 
z
M 888 1484 
Q 888 1194 1011 928 
Q 1134 663 1356 523 
Q 1578 384 1822 384 
Q 2178 384 2434 671 
Q 2691 959 2691 1453 
Q 2691 1928 2437 2201 
Q 2184 2475 1800 2475 
Q 1419 2475 1153 2201 
Q 888 1928 888 1484 
z
" id="ArialMT-36" transform="scale(0.015625)"/>
       </defs>
       <use xlink:href="#ArialMT-36"/>
       <use x="55.615234" xlink:href="#ArialMT-30"/>
      </g>
     </g>
    </g>
    <g id="xtick_5">
     <g id="line2d_5">
      <path clip-path="url(#p78595f682b)" d="M 579.327192 195.316 
L 579.327192 36.552 
" style="fill:none;stroke:#ffffff;stroke-linecap:round;"/>
     </g>
     <g id="text_5">
      <!-- 80 -->
      <g style="fill:#262626;" transform="translate(571.986754 214.264313)scale(0.132 -0.132)">
       <defs>
        <path d="M 1131 2484 
Q 781 2613 612 2850 
Q 444 3088 444 3419 
Q 444 3919 803 4259 
Q 1163 4600 1759 4600 
Q 2359 4600 2725 4251 
Q 3091 3903 3091 3403 
Q 3091 3084 2923 2848 
Q 2756 2613 2416 2484 
Q 2838 2347 3058 2040 
Q 3278 1734 3278 1309 
Q 3278 722 2862 322 
Q 2447 -78 1769 -78 
Q 1091 -78 675 323 
Q 259 725 259 1325 
Q 259 1772 486 2073 
Q 713 2375 1131 2484 
z
M 1019 3438 
Q 1019 3113 1228 2906 
Q 1438 2700 1772 2700 
Q 2097 2700 2305 2904 
Q 2513 3109 2513 3406 
Q 2513 3716 2298 3927 
Q 2084 4138 1766 4138 
Q 1444 4138 1231 3931 
Q 1019 3725 1019 3438 
z
M 838 1322 
Q 838 1081 952 856 
Q 1066 631 1291 507 
Q 1516 384 1775 384 
Q 2178 384 2440 643 
Q 2703 903 2703 1303 
Q 2703 1709 2433 1975 
Q 2163 2241 1756 2241 
Q 1359 2241 1098 1978 
Q 838 1716 838 1322 
z
" id="ArialMT-38" transform="scale(0.015625)"/>
       </defs>
       <use xlink:href="#ArialMT-38"/>
       <use x="55.615234" xlink:href="#ArialMT-30"/>
      </g>
     </g>
    </g>
    <g id="xtick_6">
     <g id="line2d_6">
      <path clip-path="url(#p78595f682b)" d="M 692.04774 195.316 
L 692.04774 36.552 
" style="fill:none;stroke:#ffffff;stroke-linecap:round;"/>
     </g>
     <g id="text_6">
      <!-- 100 -->
      <g style="fill:#262626;" transform="translate(681.037083 214.264313)scale(0.132 -0.132)">
       <defs>
        <path d="M 2384 0 
L 1822 0 
L 1822 3584 
Q 1619 3391 1289 3197 
Q 959 3003 697 2906 
L 697 3450 
Q 1169 3672 1522 3987 
Q 1875 4303 2022 4600 
L 2384 4600 
L 2384 0 
z
" id="ArialMT-31" transform="scale(0.015625)"/>
       </defs>
       <use xlink:href="#ArialMT-31"/>
       <use x="55.615234" xlink:href="#ArialMT-30"/>
       <use x="111.230469" xlink:href="#ArialMT-30"/>
      </g>
     </g>
    </g>
    <g id="xtick_7">
     <g id="line2d_7">
      <path clip-path="url(#p78595f682b)" d="M 804.768288 195.316 
L 804.768288 36.552 
" style="fill:none;stroke:#ffffff;stroke-linecap:round;"/>
     </g>
     <g id="text_7">
      <!-- 120 -->
      <g style="fill:#262626;" transform="translate(793.757631 214.264313)scale(0.132 -0.132)">
       <use xlink:href="#ArialMT-31"/>
       <use x="55.615234" xlink:href="#ArialMT-32"/>
       <use x="111.230469" xlink:href="#ArialMT-30"/>
      </g>
     </g>
    </g>
    <g id="xtick_8">
     <g id="line2d_8">
      <path clip-path="url(#p78595f682b)" d="M 917.488836 195.316 
L 917.488836 36.552 
" style="fill:none;stroke:#ffffff;stroke-linecap:round;"/>
     </g>
     <g id="text_8">
      <!-- 140 -->
      <g style="fill:#262626;" transform="translate(906.478179 214.264313)scale(0.132 -0.132)">
       <use xlink:href="#ArialMT-31"/>
       <use x="55.615234" xlink:href="#ArialMT-34"/>
       <use x="111.230469" xlink:href="#ArialMT-30"/>
      </g>
     </g>
    </g>
    <g id="text_9">
     <!-- Countries ranked from most releases to least -->
     <g style="fill:#262626;" transform="translate(396.623125 231.195063)scale(0.144 -0.144)">
      <defs>
       <path d="M 3763 1606 
L 4369 1453 
Q 4178 706 3683 314 
Q 3188 -78 2472 -78 
Q 1731 -78 1267 223 
Q 803 525 561 1097 
Q 319 1669 319 2325 
Q 319 3041 592 3573 
Q 866 4106 1370 4382 
Q 1875 4659 2481 4659 
Q 3169 4659 3637 4309 
Q 4106 3959 4291 3325 
L 3694 3184 
Q 3534 3684 3231 3912 
Q 2928 4141 2469 4141 
Q 1941 4141 1586 3887 
Q 1231 3634 1087 3207 
Q 944 2781 944 2328 
Q 944 1744 1114 1308 
Q 1284 872 1643 656 
Q 2003 441 2422 441 
Q 2931 441 3284 734 
Q 3638 1028 3763 1606 
z
" id="ArialMT-43" transform="scale(0.015625)"/>
       <path d="M 213 1659 
Q 213 2581 725 3025 
Q 1153 3394 1769 3394 
Q 2453 3394 2887 2945 
Q 3322 2497 3322 1706 
Q 3322 1066 3130 698 
Q 2938 331 2570 128 
Q 2203 -75 1769 -75 
Q 1072 -75 642 372 
Q 213 819 213 1659 
z
M 791 1659 
Q 791 1022 1069 705 
Q 1347 388 1769 388 
Q 2188 388 2466 706 
Q 2744 1025 2744 1678 
Q 2744 2294 2464 2611 
Q 2184 2928 1769 2928 
Q 1347 2928 1069 2612 
Q 791 2297 791 1659 
z
" id="ArialMT-6f" transform="scale(0.015625)"/>
       <path d="M 2597 0 
L 2597 488 
Q 2209 -75 1544 -75 
Q 1250 -75 995 37 
Q 741 150 617 320 
Q 494 491 444 738 
Q 409 903 409 1263 
L 409 3319 
L 972 3319 
L 972 1478 
Q 972 1038 1006 884 
Q 1059 663 1231 536 
Q 1403 409 1656 409 
Q 1909 409 2131 539 
Q 2353 669 2445 892 
Q 2538 1116 2538 1541 
L 2538 3319 
L 3100 3319 
L 3100 0 
L 2597 0 
z
" id="ArialMT-75" transform="scale(0.015625)"/>
       <path d="M 422 0 
L 422 3319 
L 928 3319 
L 928 2847 
Q 1294 3394 1984 3394 
Q 2284 3394 2536 3286 
Q 2788 3178 2913 3003 
Q 3038 2828 3088 2588 
Q 3119 2431 3119 2041 
L 3119 0 
L 2556 0 
L 2556 2019 
Q 2556 2363 2490 2533 
Q 2425 2703 2258 2804 
Q 2091 2906 1866 2906 
Q 1506 2906 1245 2678 
Q 984 2450 984 1813 
L 984 0 
L 422 0 
z
" id="ArialMT-6e" transform="scale(0.015625)"/>
       <path d="M 1650 503 
L 1731 6 
Q 1494 -44 1306 -44 
Q 1000 -44 831 53 
Q 663 150 594 308 
Q 525 466 525 972 
L 525 2881 
L 113 2881 
L 113 3319 
L 525 3319 
L 525 4141 
L 1084 4478 
L 1084 3319 
L 1650 3319 
L 1650 2881 
L 1084 2881 
L 1084 941 
Q 1084 700 1114 631 
Q 1144 563 1211 522 
Q 1278 481 1403 481 
Q 1497 481 1650 503 
z
" id="ArialMT-74" transform="scale(0.015625)"/>
       <path d="M 416 0 
L 416 3319 
L 922 3319 
L 922 2816 
Q 1116 3169 1280 3281 
Q 1444 3394 1641 3394 
Q 1925 3394 2219 3213 
L 2025 2691 
Q 1819 2813 1613 2813 
Q 1428 2813 1281 2702 
Q 1134 2591 1072 2394 
Q 978 2094 978 1738 
L 978 0 
L 416 0 
z
" id="ArialMT-72" transform="scale(0.015625)"/>
       <path d="M 425 3934 
L 425 4581 
L 988 4581 
L 988 3934 
L 425 3934 
z
M 425 0 
L 425 3319 
L 988 3319 
L 988 0 
L 425 0 
z
" id="ArialMT-69" transform="scale(0.015625)"/>
       <path d="M 2694 1069 
L 3275 997 
Q 3138 488 2766 206 
Q 2394 -75 1816 -75 
Q 1088 -75 661 373 
Q 234 822 234 1631 
Q 234 2469 665 2931 
Q 1097 3394 1784 3394 
Q 2450 3394 2872 2941 
Q 3294 2488 3294 1666 
Q 3294 1616 3291 1516 
L 816 1516 
Q 847 969 1125 678 
Q 1403 388 1819 388 
Q 2128 388 2347 550 
Q 2566 713 2694 1069 
z
M 847 1978 
L 2700 1978 
Q 2663 2397 2488 2606 
Q 2219 2931 1791 2931 
Q 1403 2931 1139 2672 
Q 875 2413 847 1978 
z
" id="ArialMT-65" transform="scale(0.015625)"/>
       <path d="M 197 991 
L 753 1078 
Q 800 744 1014 566 
Q 1228 388 1613 388 
Q 2000 388 2187 545 
Q 2375 703 2375 916 
Q 2375 1106 2209 1216 
Q 2094 1291 1634 1406 
Q 1016 1563 777 1677 
Q 538 1791 414 1992 
Q 291 2194 291 2438 
Q 291 2659 392 2848 
Q 494 3038 669 3163 
Q 800 3259 1026 3326 
Q 1253 3394 1513 3394 
Q 1903 3394 2198 3281 
Q 2494 3169 2634 2976 
Q 2775 2784 2828 2463 
L 2278 2388 
Q 2241 2644 2061 2787 
Q 1881 2931 1553 2931 
Q 1166 2931 1000 2803 
Q 834 2675 834 2503 
Q 834 2394 903 2306 
Q 972 2216 1119 2156 
Q 1203 2125 1616 2013 
Q 2213 1853 2448 1751 
Q 2684 1650 2818 1456 
Q 2953 1263 2953 975 
Q 2953 694 2789 445 
Q 2625 197 2315 61 
Q 2006 -75 1616 -75 
Q 969 -75 630 194 
Q 291 463 197 991 
z
" id="ArialMT-73" transform="scale(0.015625)"/>
       <path id="ArialMT-20" transform="scale(0.015625)"/>
       <path d="M 2588 409 
Q 2275 144 1986 34 
Q 1697 -75 1366 -75 
Q 819 -75 525 192 
Q 231 459 231 875 
Q 231 1119 342 1320 
Q 453 1522 633 1644 
Q 813 1766 1038 1828 
Q 1203 1872 1538 1913 
Q 2219 1994 2541 2106 
Q 2544 2222 2544 2253 
Q 2544 2597 2384 2738 
Q 2169 2928 1744 2928 
Q 1347 2928 1158 2789 
Q 969 2650 878 2297 
L 328 2372 
Q 403 2725 575 2942 
Q 747 3159 1072 3276 
Q 1397 3394 1825 3394 
Q 2250 3394 2515 3294 
Q 2781 3194 2906 3042 
Q 3031 2891 3081 2659 
Q 3109 2516 3109 2141 
L 3109 1391 
Q 3109 606 3145 398 
Q 3181 191 3288 0 
L 2700 0 
Q 2613 175 2588 409 
z
M 2541 1666 
Q 2234 1541 1622 1453 
Q 1275 1403 1131 1340 
Q 988 1278 909 1158 
Q 831 1038 831 891 
Q 831 666 1001 516 
Q 1172 366 1500 366 
Q 1825 366 2078 508 
Q 2331 650 2450 897 
Q 2541 1088 2541 1459 
L 2541 1666 
z
" id="ArialMT-61" transform="scale(0.015625)"/>
       <path d="M 425 0 
L 425 4581 
L 988 4581 
L 988 1969 
L 2319 3319 
L 3047 3319 
L 1778 2088 
L 3175 0 
L 2481 0 
L 1384 1697 
L 988 1316 
L 988 0 
L 425 0 
z
" id="ArialMT-6b" transform="scale(0.015625)"/>
       <path d="M 2575 0 
L 2575 419 
Q 2259 -75 1647 -75 
Q 1250 -75 917 144 
Q 584 363 401 755 
Q 219 1147 219 1656 
Q 219 2153 384 2558 
Q 550 2963 881 3178 
Q 1213 3394 1622 3394 
Q 1922 3394 2156 3267 
Q 2391 3141 2538 2938 
L 2538 4581 
L 3097 4581 
L 3097 0 
L 2575 0 
z
M 797 1656 
Q 797 1019 1065 703 
Q 1334 388 1700 388 
Q 2069 388 2326 689 
Q 2584 991 2584 1609 
Q 2584 2291 2321 2609 
Q 2059 2928 1675 2928 
Q 1300 2928 1048 2622 
Q 797 2316 797 1656 
z
" id="ArialMT-64" transform="scale(0.015625)"/>
       <path d="M 556 0 
L 556 2881 
L 59 2881 
L 59 3319 
L 556 3319 
L 556 3672 
Q 556 4006 616 4169 
Q 697 4388 901 4523 
Q 1106 4659 1475 4659 
Q 1713 4659 2000 4603 
L 1916 4113 
Q 1741 4144 1584 4144 
Q 1328 4144 1222 4034 
Q 1116 3925 1116 3625 
L 1116 3319 
L 1763 3319 
L 1763 2881 
L 1116 2881 
L 1116 0 
L 556 0 
z
" id="ArialMT-66" transform="scale(0.015625)"/>
       <path d="M 422 0 
L 422 3319 
L 925 3319 
L 925 2853 
Q 1081 3097 1340 3245 
Q 1600 3394 1931 3394 
Q 2300 3394 2536 3241 
Q 2772 3088 2869 2813 
Q 3263 3394 3894 3394 
Q 4388 3394 4653 3120 
Q 4919 2847 4919 2278 
L 4919 0 
L 4359 0 
L 4359 2091 
Q 4359 2428 4304 2576 
Q 4250 2725 4106 2815 
Q 3963 2906 3769 2906 
Q 3419 2906 3187 2673 
Q 2956 2441 2956 1928 
L 2956 0 
L 2394 0 
L 2394 2156 
Q 2394 2531 2256 2718 
Q 2119 2906 1806 2906 
Q 1569 2906 1367 2781 
Q 1166 2656 1075 2415 
Q 984 2175 984 1722 
L 984 0 
L 422 0 
z
" id="ArialMT-6d" transform="scale(0.015625)"/>
       <path d="M 409 0 
L 409 4581 
L 972 4581 
L 972 0 
L 409 0 
z
" id="ArialMT-6c" transform="scale(0.015625)"/>
      </defs>
      <use xlink:href="#ArialMT-43"/>
      <use x="72.216797" xlink:href="#ArialMT-6f"/>
      <use x="127.832031" xlink:href="#ArialMT-75"/>
      <use x="183.447266" xlink:href="#ArialMT-6e"/>
      <use x="239.0625" xlink:href="#ArialMT-74"/>
      <use x="266.845703" xlink:href="#ArialMT-72"/>
      <use x="300.146484" xlink:href="#ArialMT-69"/>
      <use x="322.363281" xlink:href="#ArialMT-65"/>
      <use x="377.978516" xlink:href="#ArialMT-73"/>
      <use x="427.978516" xlink:href="#ArialMT-20"/>
      <use x="455.761719" xlink:href="#ArialMT-72"/>
      <use x="489.0625" xlink:href="#ArialMT-61"/>
      <use x="544.677734" xlink:href="#ArialMT-6e"/>
      <use x="600.292969" xlink:href="#ArialMT-6b"/>
      <use x="650.292969" xlink:href="#ArialMT-65"/>
      <use x="705.908203" xlink:href="#ArialMT-64"/>
      <use x="761.523438" xlink:href="#ArialMT-20"/>
      <use x="789.306641" xlink:href="#ArialMT-66"/>
      <use x="817.089844" xlink:href="#ArialMT-72"/>
      <use x="850.390625" xlink:href="#ArialMT-6f"/>
      <use x="906.005859" xlink:href="#ArialMT-6d"/>
      <use x="989.306641" xlink:href="#ArialMT-20"/>
      <use x="1017.089844" xlink:href="#ArialMT-6d"/>
      <use x="1100.390625" xlink:href="#ArialMT-6f"/>
      <use x="1156.005859" xlink:href="#ArialMT-73"/>
      <use x="1206.005859" xlink:href="#ArialMT-74"/>
      <use x="1233.789062" xlink:href="#ArialMT-20"/>
      <use x="1261.572266" xlink:href="#ArialMT-72"/>
      <use x="1294.873047" xlink:href="#ArialMT-65"/>
      <use x="1350.488281" xlink:href="#ArialMT-6c"/>
      <use x="1372.705078" xlink:href="#ArialMT-65"/>
      <use x="1428.320312" xlink:href="#ArialMT-61"/>
      <use x="1483.935547" xlink:href="#ArialMT-73"/>
      <use x="1533.935547" xlink:href="#ArialMT-65"/>
      <use x="1589.550781" xlink:href="#ArialMT-73"/>
      <use x="1639.550781" xlink:href="#ArialMT-20"/>
      <use x="1667.333984" xlink:href="#ArialMT-74"/>
      <use x="1695.117188" xlink:href="#ArialMT-6f"/>
      <use x="1750.732422" xlink:href="#ArialMT-20"/>
      <use x="1778.515625" xlink:href="#ArialMT-6c"/>
      <use x="1800.732422" xlink:href="#ArialMT-65"/>
      <use x="1856.347656" xlink:href="#ArialMT-61"/>
      <use x="1911.962891" xlink:href="#ArialMT-73"/>
      <use x="1961.962891" xlink:href="#ArialMT-74"/>
     </g>
    </g>
   </g>
   <g id="matplotlib.axis_2">
    <g id="ytick_1">
     <g id="line2d_9">
      <path clip-path="url(#p78595f682b)" d="M 87.302 188.859407 
L 992.448 188.859407 
" style="fill:none;stroke:#ffffff;stroke-linecap:round;"/>
     </g>
     <g id="text_10">
      <!-- 0 -->
      <g style="fill:#262626;" transform="translate(70.461562 193.583563)scale(0.132 -0.132)">
       <use xlink:href="#ArialMT-30"/>
      </g>
     </g>
    </g>
    <g id="ytick_2">
     <g id="line2d_10">
      <path clip-path="url(#p78595f682b)" d="M 87.302 155.528173 
L 992.448 155.528173 
" style="fill:none;stroke:#ffffff;stroke-linecap:round;"/>
     </g>
     <g id="text_11">
      <!-- 10000 -->
      <g style="fill:#262626;" transform="translate(41.099812 160.252329)scale(0.132 -0.132)">
       <use xlink:href="#ArialMT-31"/>
       <use x="55.615234" xlink:href="#ArialMT-30"/>
       <use x="111.230469" xlink:href="#ArialMT-30"/>
       <use x="166.845703" xlink:href="#ArialMT-30"/>
       <use x="222.460938" xlink:href="#ArialMT-30"/>
      </g>
     </g>
    </g>
    <g id="ytick_3">
     <g id="line2d_11">
      <path clip-path="url(#p78595f682b)" d="M 87.302 122.196939 
L 992.448 122.196939 
" style="fill:none;stroke:#ffffff;stroke-linecap:round;"/>
     </g>
     <g id="text_12">
      <!-- 20000 -->
      <g style="fill:#262626;" transform="translate(41.099812 126.921095)scale(0.132 -0.132)">
       <use xlink:href="#ArialMT-32"/>
       <use x="55.615234" xlink:href="#ArialMT-30"/>
       <use x="111.230469" xlink:href="#ArialMT-30"/>
       <use x="166.845703" xlink:href="#ArialMT-30"/>
       <use x="222.460938" xlink:href="#ArialMT-30"/>
      </g>
     </g>
    </g>
    <g id="ytick_4">
     <g id="line2d_12">
      <path clip-path="url(#p78595f682b)" d="M 87.302 88.865705 
L 992.448 88.865705 
" style="fill:none;stroke:#ffffff;stroke-linecap:round;"/>
     </g>
     <g id="text_13">
      <!-- 30000 -->
      <g style="fill:#262626;" transform="translate(41.099812 93.589861)scale(0.132 -0.132)">
       <defs>
        <path d="M 269 1209 
L 831 1284 
Q 928 806 1161 595 
Q 1394 384 1728 384 
Q 2125 384 2398 659 
Q 2672 934 2672 1341 
Q 2672 1728 2419 1979 
Q 2166 2231 1775 2231 
Q 1616 2231 1378 2169 
L 1441 2663 
Q 1497 2656 1531 2656 
Q 1891 2656 2178 2843 
Q 2466 3031 2466 3422 
Q 2466 3731 2256 3934 
Q 2047 4138 1716 4138 
Q 1388 4138 1169 3931 
Q 950 3725 888 3313 
L 325 3413 
Q 428 3978 793 4289 
Q 1159 4600 1703 4600 
Q 2078 4600 2393 4439 
Q 2709 4278 2876 4000 
Q 3044 3722 3044 3409 
Q 3044 3113 2884 2869 
Q 2725 2625 2413 2481 
Q 2819 2388 3044 2092 
Q 3269 1797 3269 1353 
Q 3269 753 2831 336 
Q 2394 -81 1725 -81 
Q 1122 -81 723 278 
Q 325 638 269 1209 
z
" id="ArialMT-33" transform="scale(0.015625)"/>
       </defs>
       <use xlink:href="#ArialMT-33"/>
       <use x="55.615234" xlink:href="#ArialMT-30"/>
       <use x="111.230469" xlink:href="#ArialMT-30"/>
       <use x="166.845703" xlink:href="#ArialMT-30"/>
       <use x="222.460938" xlink:href="#ArialMT-30"/>
      </g>
     </g>
    </g>
    <g id="ytick_5">
     <g id="line2d_13">
      <path clip-path="url(#p78595f682b)" d="M 87.302 55.534471 
L 992.448 55.534471 
" style="fill:none;stroke:#ffffff;stroke-linecap:round;"/>
     </g>
     <g id="text_14">
      <!-- 40000 -->
      <g style="fill:#262626;" transform="translate(41.099812 60.258627)scale(0.132 -0.132)">
       <use xlink:href="#ArialMT-34"/>
       <use x="55.615234" xlink:href="#ArialMT-30"/>
       <use x="111.230469" xlink:href="#ArialMT-30"/>
       <use x="166.845703" xlink:href="#ArialMT-30"/>
       <use x="222.460938" xlink:href="#ArialMT-30"/>
      </g>
     </g>
    </g>
    <g id="text_15">
     <!-- # releases -->
     <g style="fill:#262626;" transform="translate(34.237812 149.15075)rotate(-90)scale(0.144 -0.144)">
      <defs>
       <path d="M 322 -78 
L 594 1253 
L 66 1253 
L 66 1719 
L 688 1719 
L 919 2853 
L 66 2853 
L 66 3319 
L 1013 3319 
L 1284 4659 
L 1753 4659 
L 1481 3319 
L 2466 3319 
L 2738 4659 
L 3209 4659 
L 2938 3319 
L 3478 3319 
L 3478 2853 
L 2844 2853 
L 2609 1719 
L 3478 1719 
L 3478 1253 
L 2516 1253 
L 2244 -78 
L 1775 -78 
L 2044 1253 
L 1063 1253 
L 791 -78 
L 322 -78 
z
M 1156 1719 
L 2138 1719 
L 2372 2853 
L 1388 2853 
L 1156 1719 
z
" id="ArialMT-23" transform="scale(0.015625)"/>
      </defs>
      <use xlink:href="#ArialMT-23"/>
      <use x="55.615234" xlink:href="#ArialMT-20"/>
      <use x="83.398438" xlink:href="#ArialMT-72"/>
      <use x="116.699219" xlink:href="#ArialMT-65"/>
      <use x="172.314453" xlink:href="#ArialMT-6c"/>
      <use x="194.53125" xlink:href="#ArialMT-65"/>
      <use x="250.146484" xlink:href="#ArialMT-61"/>
      <use x="305.761719" xlink:href="#ArialMT-73"/>
      <use x="355.761719" xlink:href="#ArialMT-65"/>
      <use x="411.376953" xlink:href="#ArialMT-73"/>
     </g>
    </g>
   </g>
   <g id="line2d_14">
    <path clip-path="url(#p78595f682b)" d="M 128.445 43.768545 
L 134.081027 102.534844 
L 139.717055 114.044119 
L 145.353082 125.093423 
L 150.98911 131.743004 
L 156.625137 146.682063 
L 162.261164 149.001917 
L 167.897192 149.141908 
L 173.533219 149.851864 
L 179.169247 150.8618 
L 184.805274 152.161718 
L 190.441301 152.781679 
L 196.077329 153.771617 
L 201.713356 154.091597 
L 224.257466 154.581566 
L 229.893493 154.881547 
L 246.801575 155.021538 
L 269.345685 155.331518 
L 297.525822 155.831487 
L 331.341986 156.001476 
L 348.250068 156.251461 
L 370.794178 156.401451 
L 376.430205 156.57144 
L 444.062534 156.801426 
L 460.970616 156.911419 
L 472.242671 157.071409 
L 477.878699 157.2114 
L 494.786781 157.281396 
L 506.058836 157.381389 
L 511.694863 158.33133 
L 517.33089 158.351328 
L 522.966918 158.561315 
L 528.602945 158.581314 
L 534.238973 158.861296 
L 539.875 158.891294 
L 545.511027 159.181276 
L 556.783082 162.271081 
L 562.41911 162.361076 
L 568.055137 162.631059 
L 573.691164 163.041033 
L 579.327192 163.211022 
L 596.235274 163.431008 
L 607.507329 163.680993 
L 675.139658 164.170962 
L 680.775685 164.960912 
L 697.683767 165.090904 
L 703.319795 165.1509 
L 708.955822 166.350824 
L 720.227877 167.040781 
L 737.135959 167.280766 
L 742.771986 167.700739 
L 782.224178 167.800733 
L 793.496233 167.870729 
L 816.040342 167.990721 
L 832.948425 168.210707 
L 838.584452 168.530687 
L 844.220479 168.620681 
L 849.856507 168.890664 
L 866.764589 168.970659 
L 894.944726 169.080652 
L 900.580753 169.100651 
L 911.852808 169.850604 
L 917.488836 170.71055 
L 923.124863 170.820543 
L 928.76089 171.34051 
L 934.396918 171.34051 
L 940.032945 173.460377 
L 945.668973 179.160018 
L 951.305 188.099455 
L 951.305 188.099455 
" style="fill:none;stroke:#4c72b0;stroke-linecap:round;stroke-width:1.5;"/>
   </g>
   <g id="patch_3">
    <path d="M 87.302 195.316 
L 87.302 36.552 
" style="fill:none;stroke:#ffffff;stroke-linecap:square;stroke-linejoin:miter;stroke-width:1.25;"/>
   </g>
   <g id="patch_4">
    <path d="M 992.448 195.316 
L 992.448 36.552 
" style="fill:none;stroke:#ffffff;stroke-linecap:square;stroke-linejoin:miter;stroke-width:1.25;"/>
   </g>
   <g id="patch_5">
    <path d="M 87.302 195.316 
L 992.448 195.316 
" style="fill:none;stroke:#ffffff;stroke-linecap:square;stroke-linejoin:miter;stroke-width:1.25;"/>
   </g>
   <g id="patch_6">
    <path d="M 87.302 36.552 
L 992.448 36.552 
" style="fill:none;stroke:#ffffff;stroke-linecap:square;stroke-linejoin:miter;stroke-width:1.25;"/>
   </g>
   <g id="text_16">
    <!-- Number of releases by countries -->
    <g style="fill:#262626;" transform="translate(395.929687 30.552)scale(0.2 -0.2)">
     <defs>
      <path d="M 488 0 
L 488 4581 
L 1109 4581 
L 3516 984 
L 3516 4581 
L 4097 4581 
L 4097 0 
L 3475 0 
L 1069 3600 
L 1069 0 
L 488 0 
z
" id="ArialMT-4e" transform="scale(0.015625)"/>
      <path d="M 941 0 
L 419 0 
L 419 4581 
L 981 4581 
L 981 2947 
Q 1338 3394 1891 3394 
Q 2197 3394 2470 3270 
Q 2744 3147 2920 2923 
Q 3097 2700 3197 2384 
Q 3297 2069 3297 1709 
Q 3297 856 2875 390 
Q 2453 -75 1863 -75 
Q 1275 -75 941 416 
L 941 0 
z
M 934 1684 
Q 934 1088 1097 822 
Q 1363 388 1816 388 
Q 2184 388 2453 708 
Q 2722 1028 2722 1663 
Q 2722 2313 2464 2622 
Q 2206 2931 1841 2931 
Q 1472 2931 1203 2611 
Q 934 2291 934 1684 
z
" id="ArialMT-62" transform="scale(0.015625)"/>
      <path d="M 397 -1278 
L 334 -750 
Q 519 -800 656 -800 
Q 844 -800 956 -737 
Q 1069 -675 1141 -563 
Q 1194 -478 1313 -144 
Q 1328 -97 1363 -6 
L 103 3319 
L 709 3319 
L 1400 1397 
Q 1534 1031 1641 628 
Q 1738 1016 1872 1384 
L 2581 3319 
L 3144 3319 
L 1881 -56 
Q 1678 -603 1566 -809 
Q 1416 -1088 1222 -1217 
Q 1028 -1347 759 -1347 
Q 597 -1347 397 -1278 
z
" id="ArialMT-79" transform="scale(0.015625)"/>
      <path d="M 2588 1216 
L 3141 1144 
Q 3050 572 2676 248 
Q 2303 -75 1759 -75 
Q 1078 -75 664 370 
Q 250 816 250 1647 
Q 250 2184 428 2587 
Q 606 2991 970 3192 
Q 1334 3394 1763 3394 
Q 2303 3394 2647 3120 
Q 2991 2847 3088 2344 
L 2541 2259 
Q 2463 2594 2264 2762 
Q 2066 2931 1784 2931 
Q 1359 2931 1093 2626 
Q 828 2322 828 1663 
Q 828 994 1084 691 
Q 1341 388 1753 388 
Q 2084 388 2306 591 
Q 2528 794 2588 1216 
z
" id="ArialMT-63" transform="scale(0.015625)"/>
     </defs>
     <use xlink:href="#ArialMT-4e"/>
     <use x="72.216797" xlink:href="#ArialMT-75"/>
     <use x="127.832031" xlink:href="#ArialMT-6d"/>
     <use x="211.132812" xlink:href="#ArialMT-62"/>
     <use x="266.748047" xlink:href="#ArialMT-65"/>
     <use x="322.363281" xlink:href="#ArialMT-72"/>
     <use x="355.664062" xlink:href="#ArialMT-20"/>
     <use x="383.447266" xlink:href="#ArialMT-6f"/>
     <use x="439.0625" xlink:href="#ArialMT-66"/>
     <use x="466.845703" xlink:href="#ArialMT-20"/>
     <use x="494.628906" xlink:href="#ArialMT-72"/>
     <use x="527.929688" xlink:href="#ArialMT-65"/>
     <use x="583.544922" xlink:href="#ArialMT-6c"/>
     <use x="605.761719" xlink:href="#ArialMT-65"/>
     <use x="661.376953" xlink:href="#ArialMT-61"/>
     <use x="716.992188" xlink:href="#ArialMT-73"/>
     <use x="766.992188" xlink:href="#ArialMT-65"/>
     <use x="822.607422" xlink:href="#ArialMT-73"/>
     <use x="872.607422" xlink:href="#ArialMT-20"/>
     <use x="900.390625" xlink:href="#ArialMT-62"/>
     <use x="956.005859" xlink:href="#ArialMT-79"/>
     <use x="1006.005859" xlink:href="#ArialMT-20"/>
     <use x="1033.789062" xlink:href="#ArialMT-63"/>
     <use x="1083.789062" xlink:href="#ArialMT-6f"/>
     <use x="1139.404297" xlink:href="#ArialMT-75"/>
     <use x="1195.019531" xlink:href="#ArialMT-6e"/>
     <use x="1250.634766" xlink:href="#ArialMT-74"/>
     <use x="1278.417969" xlink:href="#ArialMT-72"/>
     <use x="1311.71875" xlink:href="#ArialMT-69"/>
     <use x="1333.935547" xlink:href="#ArialMT-65"/>
     <use x="1389.550781" xlink:href="#ArialMT-73"/>
    </g>
   </g>
  </g>
  <g id="axes_2">
   <g id="patch_7">
    <path d="M 87.302 430.132 
L 992.448 430.132 
L 992.448 271.368 
L 87.302 271.368 
z
" style="fill:#eaeaf2;"/>
   </g>
   <g id="matplotlib.axis_3">
    <g id="xtick_9">
     <g id="line2d_15">
      <path clip-path="url(#p0d329ab2f4)" d="M 128.445 430.132 
L 128.445 271.368 
" style="fill:none;stroke:#ffffff;stroke-linecap:round;"/>
     </g>
     <g id="text_17">
      <!-- 0 -->
      <g style="fill:#262626;" transform="translate(124.774781 449.080313)scale(0.132 -0.132)">
       <use xlink:href="#ArialMT-30"/>
      </g>
     </g>
    </g>
    <g id="xtick_10">
     <g id="line2d_16">
      <path clip-path="url(#p0d329ab2f4)" d="M 241.165548 430.132 
L 241.165548 271.368 
" style="fill:none;stroke:#ffffff;stroke-linecap:round;"/>
     </g>
     <g id="text_18">
      <!-- 20 -->
      <g style="fill:#262626;" transform="translate(233.82511 449.080313)scale(0.132 -0.132)">
       <use xlink:href="#ArialMT-32"/>
       <use x="55.615234" xlink:href="#ArialMT-30"/>
      </g>
     </g>
    </g>
    <g id="xtick_11">
     <g id="line2d_17">
      <path clip-path="url(#p0d329ab2f4)" d="M 353.886096 430.132 
L 353.886096 271.368 
" style="fill:none;stroke:#ffffff;stroke-linecap:round;"/>
     </g>
     <g id="text_19">
      <!-- 40 -->
      <g style="fill:#262626;" transform="translate(346.545658 449.080313)scale(0.132 -0.132)">
       <use xlink:href="#ArialMT-34"/>
       <use x="55.615234" xlink:href="#ArialMT-30"/>
      </g>
     </g>
    </g>
    <g id="xtick_12">
     <g id="line2d_18">
      <path clip-path="url(#p0d329ab2f4)" d="M 466.606644 430.132 
L 466.606644 271.368 
" style="fill:none;stroke:#ffffff;stroke-linecap:round;"/>
     </g>
     <g id="text_20">
      <!-- 60 -->
      <g style="fill:#262626;" transform="translate(459.266206 449.080313)scale(0.132 -0.132)">
       <use xlink:href="#ArialMT-36"/>
       <use x="55.615234" xlink:href="#ArialMT-30"/>
      </g>
     </g>
    </g>
    <g id="xtick_13">
     <g id="line2d_19">
      <path clip-path="url(#p0d329ab2f4)" d="M 579.327192 430.132 
L 579.327192 271.368 
" style="fill:none;stroke:#ffffff;stroke-linecap:round;"/>
     </g>
     <g id="text_21">
      <!-- 80 -->
      <g style="fill:#262626;" transform="translate(571.986754 449.080313)scale(0.132 -0.132)">
       <use xlink:href="#ArialMT-38"/>
       <use x="55.615234" xlink:href="#ArialMT-30"/>
      </g>
     </g>
    </g>
    <g id="xtick_14">
     <g id="line2d_20">
      <path clip-path="url(#p0d329ab2f4)" d="M 692.04774 430.132 
L 692.04774 271.368 
" style="fill:none;stroke:#ffffff;stroke-linecap:round;"/>
     </g>
     <g id="text_22">
      <!-- 100 -->
      <g style="fill:#262626;" transform="translate(681.037083 449.080313)scale(0.132 -0.132)">
       <use xlink:href="#ArialMT-31"/>
       <use x="55.615234" xlink:href="#ArialMT-30"/>
       <use x="111.230469" xlink:href="#ArialMT-30"/>
      </g>
     </g>
    </g>
    <g id="xtick_15">
     <g id="line2d_21">
      <path clip-path="url(#p0d329ab2f4)" d="M 804.768288 430.132 
L 804.768288 271.368 
" style="fill:none;stroke:#ffffff;stroke-linecap:round;"/>
     </g>
     <g id="text_23">
      <!-- 120 -->
      <g style="fill:#262626;" transform="translate(793.757631 449.080313)scale(0.132 -0.132)">
       <use xlink:href="#ArialMT-31"/>
       <use x="55.615234" xlink:href="#ArialMT-32"/>
       <use x="111.230469" xlink:href="#ArialMT-30"/>
      </g>
     </g>
    </g>
    <g id="xtick_16">
     <g id="line2d_22">
      <path clip-path="url(#p0d329ab2f4)" d="M 917.488836 430.132 
L 917.488836 271.368 
" style="fill:none;stroke:#ffffff;stroke-linecap:round;"/>
     </g>
     <g id="text_24">
      <!-- 140 -->
      <g style="fill:#262626;" transform="translate(906.478179 449.080313)scale(0.132 -0.132)">
       <use xlink:href="#ArialMT-31"/>
       <use x="55.615234" xlink:href="#ArialMT-34"/>
       <use x="111.230469" xlink:href="#ArialMT-30"/>
      </g>
     </g>
    </g>
    <g id="text_25">
     <!-- Countries ranked from most releases to least -->
     <g style="fill:#262626;" transform="translate(396.623125 466.011063)scale(0.144 -0.144)">
      <use xlink:href="#ArialMT-43"/>
      <use x="72.216797" xlink:href="#ArialMT-6f"/>
      <use x="127.832031" xlink:href="#ArialMT-75"/>
      <use x="183.447266" xlink:href="#ArialMT-6e"/>
      <use x="239.0625" xlink:href="#ArialMT-74"/>
      <use x="266.845703" xlink:href="#ArialMT-72"/>
      <use x="300.146484" xlink:href="#ArialMT-69"/>
      <use x="322.363281" xlink:href="#ArialMT-65"/>
      <use x="377.978516" xlink:href="#ArialMT-73"/>
      <use x="427.978516" xlink:href="#ArialMT-20"/>
      <use x="455.761719" xlink:href="#ArialMT-72"/>
      <use x="489.0625" xlink:href="#ArialMT-61"/>
      <use x="544.677734" xlink:href="#ArialMT-6e"/>
      <use x="600.292969" xlink:href="#ArialMT-6b"/>
      <use x="650.292969" xlink:href="#ArialMT-65"/>
      <use x="705.908203" xlink:href="#ArialMT-64"/>
      <use x="761.523438" xlink:href="#ArialMT-20"/>
      <use x="789.306641" xlink:href="#ArialMT-66"/>
      <use x="817.089844" xlink:href="#ArialMT-72"/>
      <use x="850.390625" xlink:href="#ArialMT-6f"/>
      <use x="906.005859" xlink:href="#ArialMT-6d"/>
      <use x="989.306641" xlink:href="#ArialMT-20"/>
      <use x="1017.089844" xlink:href="#ArialMT-6d"/>
      <use x="1100.390625" xlink:href="#ArialMT-6f"/>
      <use x="1156.005859" xlink:href="#ArialMT-73"/>
      <use x="1206.005859" xlink:href="#ArialMT-74"/>
      <use x="1233.789062" xlink:href="#ArialMT-20"/>
      <use x="1261.572266" xlink:href="#ArialMT-72"/>
      <use x="1294.873047" xlink:href="#ArialMT-65"/>
      <use x="1350.488281" xlink:href="#ArialMT-6c"/>
      <use x="1372.705078" xlink:href="#ArialMT-65"/>
      <use x="1428.320312" xlink:href="#ArialMT-61"/>
      <use x="1483.935547" xlink:href="#ArialMT-73"/>
      <use x="1533.935547" xlink:href="#ArialMT-65"/>
      <use x="1589.550781" xlink:href="#ArialMT-73"/>
      <use x="1639.550781" xlink:href="#ArialMT-20"/>
      <use x="1667.333984" xlink:href="#ArialMT-74"/>
      <use x="1695.117188" xlink:href="#ArialMT-6f"/>
      <use x="1750.732422" xlink:href="#ArialMT-20"/>
      <use x="1778.515625" xlink:href="#ArialMT-6c"/>
      <use x="1800.732422" xlink:href="#ArialMT-65"/>
      <use x="1856.347656" xlink:href="#ArialMT-61"/>
      <use x="1911.962891" xlink:href="#ArialMT-73"/>
      <use x="1961.962891" xlink:href="#ArialMT-74"/>
     </g>
    </g>
   </g>
   <g id="matplotlib.axis_4">
    <g id="ytick_6">
     <g id="line2d_23">
      <path clip-path="url(#p0d329ab2f4)" d="M 87.302 425.471892 
L 992.448 425.471892 
" style="fill:none;stroke:#ffffff;stroke-linecap:round;"/>
     </g>
     <g id="text_26">
      <!-- 3 -->
      <g style="fill:#262626;" transform="translate(70.461562 430.196048)scale(0.132 -0.132)">
       <use xlink:href="#ArialMT-33"/>
      </g>
     </g>
    </g>
    <g id="ytick_7">
     <g id="line2d_24">
      <path clip-path="url(#p0d329ab2f4)" d="M 87.302 394.671442 
L 992.448 394.671442 
" style="fill:none;stroke:#ffffff;stroke-linecap:round;"/>
     </g>
     <g id="text_27">
      <!-- 4 -->
      <g style="fill:#262626;" transform="translate(70.461562 399.395598)scale(0.132 -0.132)">
       <use xlink:href="#ArialMT-34"/>
      </g>
     </g>
    </g>
    <g id="ytick_8">
     <g id="line2d_25">
      <path clip-path="url(#p0d329ab2f4)" d="M 87.302 363.870992 
L 992.448 363.870992 
" style="fill:none;stroke:#ffffff;stroke-linecap:round;"/>
     </g>
     <g id="text_28">
      <!-- 5 -->
      <g style="fill:#262626;" transform="translate(70.461562 368.595148)scale(0.132 -0.132)">
       <defs>
        <path d="M 266 1200 
L 856 1250 
Q 922 819 1161 601 
Q 1400 384 1738 384 
Q 2144 384 2425 690 
Q 2706 997 2706 1503 
Q 2706 1984 2436 2262 
Q 2166 2541 1728 2541 
Q 1456 2541 1237 2417 
Q 1019 2294 894 2097 
L 366 2166 
L 809 4519 
L 3088 4519 
L 3088 3981 
L 1259 3981 
L 1013 2750 
Q 1425 3038 1878 3038 
Q 2478 3038 2890 2622 
Q 3303 2206 3303 1553 
Q 3303 931 2941 478 
Q 2500 -78 1738 -78 
Q 1113 -78 717 272 
Q 322 622 266 1200 
z
" id="ArialMT-35" transform="scale(0.015625)"/>
       </defs>
       <use xlink:href="#ArialMT-35"/>
      </g>
     </g>
    </g>
    <g id="ytick_9">
     <g id="line2d_26">
      <path clip-path="url(#p0d329ab2f4)" d="M 87.302 333.070542 
L 992.448 333.070542 
" style="fill:none;stroke:#ffffff;stroke-linecap:round;"/>
     </g>
     <g id="text_29">
      <!-- 6 -->
      <g style="fill:#262626;" transform="translate(70.461562 337.794698)scale(0.132 -0.132)">
       <use xlink:href="#ArialMT-36"/>
      </g>
     </g>
    </g>
    <g id="ytick_10">
     <g id="line2d_27">
      <path clip-path="url(#p0d329ab2f4)" d="M 87.302 302.270092 
L 992.448 302.270092 
" style="fill:none;stroke:#ffffff;stroke-linecap:round;"/>
     </g>
     <g id="text_30">
      <!-- 7 -->
      <g style="fill:#262626;" transform="translate(70.461562 306.994248)scale(0.132 -0.132)">
       <defs>
        <path d="M 303 3981 
L 303 4522 
L 3269 4522 
L 3269 4084 
Q 2831 3619 2401 2847 
Q 1972 2075 1738 1259 
Q 1569 684 1522 0 
L 944 0 
Q 953 541 1156 1306 
Q 1359 2072 1739 2783 
Q 2119 3494 2547 3981 
L 303 3981 
z
" id="ArialMT-37" transform="scale(0.015625)"/>
       </defs>
       <use xlink:href="#ArialMT-37"/>
      </g>
     </g>
    </g>
    <g id="ytick_11">
     <g id="line2d_28">
      <path clip-path="url(#p0d329ab2f4)" d="M 87.302 271.469641 
L 992.448 271.469641 
" style="fill:none;stroke:#ffffff;stroke-linecap:round;"/>
     </g>
     <g id="text_31">
      <!-- 8 -->
      <g style="fill:#262626;" transform="translate(70.461562 276.193798)scale(0.132 -0.132)">
       <use xlink:href="#ArialMT-38"/>
      </g>
     </g>
    </g>
    <g id="text_32">
     <!-- Happiness Score -->
     <g style="fill:#262626;" transform="translate(63.599562 405.576875)rotate(-90)scale(0.144 -0.144)">
      <defs>
       <path d="M 513 0 
L 513 4581 
L 1119 4581 
L 1119 2700 
L 3500 2700 
L 3500 4581 
L 4106 4581 
L 4106 0 
L 3500 0 
L 3500 2159 
L 1119 2159 
L 1119 0 
L 513 0 
z
" id="ArialMT-48" transform="scale(0.015625)"/>
       <path d="M 422 -1272 
L 422 3319 
L 934 3319 
L 934 2888 
Q 1116 3141 1344 3267 
Q 1572 3394 1897 3394 
Q 2322 3394 2647 3175 
Q 2972 2956 3137 2557 
Q 3303 2159 3303 1684 
Q 3303 1175 3120 767 
Q 2938 359 2589 142 
Q 2241 -75 1856 -75 
Q 1575 -75 1351 44 
Q 1128 163 984 344 
L 984 -1272 
L 422 -1272 
z
M 931 1641 
Q 931 1000 1190 694 
Q 1450 388 1819 388 
Q 2194 388 2461 705 
Q 2728 1022 2728 1688 
Q 2728 2322 2467 2637 
Q 2206 2953 1844 2953 
Q 1484 2953 1207 2617 
Q 931 2281 931 1641 
z
" id="ArialMT-70" transform="scale(0.015625)"/>
       <path d="M 288 1472 
L 859 1522 
Q 900 1178 1048 958 
Q 1197 738 1509 602 
Q 1822 466 2213 466 
Q 2559 466 2825 569 
Q 3091 672 3220 851 
Q 3350 1031 3350 1244 
Q 3350 1459 3225 1620 
Q 3100 1781 2813 1891 
Q 2628 1963 1997 2114 
Q 1366 2266 1113 2400 
Q 784 2572 623 2826 
Q 463 3081 463 3397 
Q 463 3744 659 4045 
Q 856 4347 1234 4503 
Q 1613 4659 2075 4659 
Q 2584 4659 2973 4495 
Q 3363 4331 3572 4012 
Q 3781 3694 3797 3291 
L 3216 3247 
Q 3169 3681 2898 3903 
Q 2628 4125 2100 4125 
Q 1550 4125 1298 3923 
Q 1047 3722 1047 3438 
Q 1047 3191 1225 3031 
Q 1400 2872 2139 2705 
Q 2878 2538 3153 2413 
Q 3553 2228 3743 1945 
Q 3934 1663 3934 1294 
Q 3934 928 3725 604 
Q 3516 281 3123 101 
Q 2731 -78 2241 -78 
Q 1619 -78 1198 103 
Q 778 284 539 648 
Q 300 1013 288 1472 
z
" id="ArialMT-53" transform="scale(0.015625)"/>
      </defs>
      <use xlink:href="#ArialMT-48"/>
      <use x="72.216797" xlink:href="#ArialMT-61"/>
      <use x="127.832031" xlink:href="#ArialMT-70"/>
      <use x="183.447266" xlink:href="#ArialMT-70"/>
      <use x="239.0625" xlink:href="#ArialMT-69"/>
      <use x="261.279297" xlink:href="#ArialMT-6e"/>
      <use x="316.894531" xlink:href="#ArialMT-65"/>
      <use x="372.509766" xlink:href="#ArialMT-73"/>
      <use x="422.509766" xlink:href="#ArialMT-73"/>
      <use x="472.509766" xlink:href="#ArialMT-20"/>
      <use x="500.292969" xlink:href="#ArialMT-53"/>
      <use x="566.992188" xlink:href="#ArialMT-63"/>
      <use x="616.992188" xlink:href="#ArialMT-6f"/>
      <use x="672.607422" xlink:href="#ArialMT-72"/>
      <use x="705.908203" xlink:href="#ArialMT-65"/>
     </g>
    </g>
   </g>
   <g id="line2d_29">
    <path clip-path="url(#p0d329ab2f4)" d="M 128.445 305.59654 
L 134.081027 336.581793 
L 139.717055 300.606867 
L 145.353082 302.732098 
L 150.98911 314.836675 
L 156.625137 293.707566 
L 162.261164 314.744274 
L 167.897192 326.202041 
L 173.533219 287.239472 
L 179.169247 295.247589 
L 184.805274 322.167182 
L 190.441301 323.830407 
L 196.077329 291.705537 
L 201.713356 394.209435 
L 207.349384 304.641726 
L 212.985411 327.46486 
L 218.621438 278.584545 
L 224.257466 294.693181 
L 229.893493 350.626798 
L 235.529521 285.206642 
L 241.165548 352.382424 
L 246.801575 353.429639 
L 252.437603 301.623282 
L 258.07363 287.485876 
L 263.709658 357.957305 
L 269.345685 325.000824 
L 274.981712 283.789822 
L 280.61774 330.421703 
L 286.253767 389.558567 
L 291.889795 329.220485 
L 297.525822 319.395142 
L 303.161849 342.52628 
L 308.797877 355.031263 
L 314.433904 340.524251 
L 320.069932 307.66017 
L 325.705959 357.803303 
L 331.341986 321.520373 
L 336.978014 372.433517 
L 342.614041 321.551173 
L 348.250068 366.766234 
L 353.886096 342.403078 
L 359.522123 292.814353 
L 365.158151 306.828558 
L 370.794178 326.941252 
L 376.430205 332.208129 
L 382.066233 339.877441 
L 387.70226 323.183597 
L 393.338288 340.986257 
L 398.974315 325.278028 
L 404.610342 297.126416 
L 410.24637 329.836494 
L 415.882397 319.641545 
L 421.518425 337.382605 
L 427.154452 332.824138 
L 432.790479 330.91451 
L 438.426507 326.972053 
L 444.062534 344.435908 
L 449.698562 336.304589 
L 455.334589 336.36619 
L 460.970616 297.988829 
L 466.606644 363.532187 
L 472.242671 299.498051 
L 477.878699 331.653721 
L 483.514726 328.481275 
L 489.150753 358.480913 
L 494.786781 343.9123 
L 500.422808 334.918569 
L 506.058836 310.709415 
L 511.694863 324.04601 
L 517.33089 332.423732 
L 522.966918 357.372097 
L 528.602945 357.464498 
L 534.238973 380.472434 
L 539.875 350.7808 
L 545.511027 287.054669 
L 551.147055 384.445692 
L 556.783082 329.436089 
L 562.41911 338.953428 
L 568.055137 363.994194 
L 573.691164 347.577554 
L 579.327192 355.708872 
L 584.963219 355.832074 
L 590.599247 378.994013 
L 596.235274 383.398477 
L 601.871301 373.111127 
L 607.507329 357.464498 
L 613.143356 388.850157 
L 618.779384 378.77841 
L 624.415411 388.141746 
L 630.051438 410.441272 
L 635.687466 375.328759 
L 641.323493 355.092863 
L 646.959521 377.45399 
L 652.595548 336.520192 
L 658.231575 370.154284 
L 663.867603 374.989954 
L 669.50363 380.318432 
L 675.139658 349.487182 
L 680.775685 353.922446 
L 686.411712 366.550631 
L 692.04774 327.711263 
L 697.683767 405.051193 
L 703.319795 376.591578 
L 708.955822 350.565197 
L 714.591849 355.431668 
L 720.227877 351.982018 
L 725.863904 357.988106 
L 731.499932 347.762356 
L 737.135959 383.891284 
L 742.771986 379.579221 
L 748.408014 418.356988 
L 754.044041 412.843707 
L 759.680068 395.441453 
L 765.316096 373.696335 
L 770.952123 383.152073 
L 776.588151 361.345355 
L 782.224178 367.474644 
L 787.860205 362.515772 
L 793.496233 370.061882 
L 799.13226 378.686008 
L 804.768288 415.184542 
L 810.404315 372.525918 
L 816.040342 391.375794 
L 821.67637 336.458591 
L 827.312397 396.735072 
L 832.948425 369.661476 
L 838.584452 382.659266 
L 844.220479 345.29832 
L 849.856507 413.767721 
L 855.492534 395.503054 
L 861.128562 378.224001 
L 866.764589 400.769931 
L 872.400616 392.053404 
L 878.036644 380.626437 
L 883.672671 381.211645 
L 889.308699 343.758298 
L 894.944726 419.219401 
L 900.580753 385.862513 
L 906.216781 381.796854 
L 911.852808 347.700755 
L 917.488836 401.601543 
L 923.124863 422.915455 
L 928.76089 365.595817 
L 934.396918 327.156855 
L 940.032945 383.58328 
L 945.668973 329.990497 
L 951.305 407.084023 
L 951.305 407.084023 
" style="fill:none;stroke:#808080;stroke-linecap:round;stroke-width:1.5;"/>
   </g>
   <g id="line2d_30">
    <path clip-path="url(#p0d329ab2f4)" d="M 162.261164 309.829402 
L 167.897192 312.773045 
L 173.533219 305.724142 
L 179.169247 304.958531 
L 184.805274 307.734971 
L 190.441301 309.01979 
L 196.077329 308.733786 
L 201.713356 320.085952 
L 207.349384 317.005907 
L 212.985411 322.752391 
L 218.621438 320.371956 
L 224.257466 316.447099 
L 229.893493 320.275155 
L 235.529521 319.346741 
L 241.165548 313.371454 
L 246.801575 320.341156 
L 252.437603 316.649502 
L 258.07363 317.92112 
L 263.709658 326.958852 
L 269.345685 323.297999 
L 274.981712 323.095596 
L 280.61774 319.95835 
L 286.253767 325.119625 
L 291.889795 329.062083 
L 297.525822 333.62055 
L 303.161849 331.416117 
L 308.797877 335.70618 
L 314.433904 343.811099 
L 320.069932 340.559451 
L 325.705959 336.022985 
L 331.341986 334.922969 
L 336.978014 342.499879 
L 342.614041 339.503436 
L 348.250068 341.17986 
L 353.886096 341.448264 
L 359.522123 339.327433 
L 365.158151 332.045327 
L 370.794178 332.819738 
L 376.430205 327.073254 
L 382.066233 329.691292 
L 387.70226 323.465201 
L 393.338288 323.262798 
L 398.974315 327.900466 
L 404.610342 326.514446 
L 410.24637 326.928052 
L 415.882397 325.132826 
L 421.518425 324.77642 
L 427.154452 326.153641 
L 432.790479 324.71482 
L 438.426507 324.956823 
L 444.062534 331.715322 
L 449.698562 332.639335 
L 455.334589 335.02857 
L 460.970616 329.400888 
L 466.606644 333.787752 
L 472.242671 329.299687 
L 477.878699 329.968496 
L 483.514726 327.689263 
L 489.150753 330.857309 
L 494.786781 331.935325 
L 500.422808 337.211002 
L 506.058836 329.664892 
L 511.694863 333.171743 
L 517.33089 333.281745 
L 522.966918 337.409005 
L 528.602945 337.263803 
L 534.238973 342.486679 
L 539.875 344.752712 
L 545.511027 341.373463 
L 551.147055 350.001989 
L 556.783082 349.575183 
L 562.41911 346.943944 
L 568.055137 347.876758 
L 573.691164 343.177489 
L 579.327192 343.8815 
L 584.963219 353.706843 
L 590.599247 352.928032 
L 596.235274 360.636944 
L 601.871301 365.516616 
L 607.507329 364.583802 
L 613.143356 370.479888 
L 618.779384 373.775536 
L 630.051438 382.88367 
L 635.687466 381.730853 
L 641.323493 379.156815 
L 646.959521 382.012457 
L 652.595548 374.536748 
L 658.231575 373.30473 
L 663.867603 371.425902 
L 669.50363 367.122639 
L 675.139658 363.430985 
L 680.775685 363.263783 
L 686.411712 361.70616 
L 692.04774 360.447742 
L 697.683767 365.433015 
L 703.319795 365.661818 
L 708.955822 361.411356 
L 714.591849 362.260568 
L 720.227877 361.983364 
L 725.863904 360.760146 
L 731.499932 363.624588 
L 737.135959 360.601744 
L 742.771986 361.02855 
L 748.408014 370.713092 
L 754.044041 378.914812 
L 759.680068 385.123302 
L 765.316096 387.367335 
L 770.952123 392.423009 
L 776.588151 389.202162 
L 782.224178 387.472937 
L 787.860205 379.49562 
L 793.496233 373.383931 
L 799.13226 370.990296 
L 804.768288 376.917182 
L 810.404315 375.39916 
L 816.040342 379.689223 
L 821.67637 375.258358 
L 827.312397 380.14683 
L 832.948425 380.089629 
L 838.584452 380.657237 
L 844.220479 370.673491 
L 849.856507 376.565177 
L 855.492534 377.154786 
L 861.128562 383.121273 
L 866.764589 383.697681 
L 872.400616 386.896528 
L 878.036644 386.606124 
L 883.672671 391.736599 
L 889.308699 381.735253 
L 894.944726 385.123302 
L 900.580753 386.214518 
L 906.216781 383.504079 
L 911.852808 377.167986 
L 917.488836 380.16443 
L 923.124863 386.122117 
L 928.76089 389.241762 
L 934.396918 376.08997 
L 940.032945 375.764366 
L 945.668973 368.363457 
L 951.305 376.846781 
L 951.305 376.846781 
" style="fill:none;stroke:#4c72b0;stroke-linecap:round;stroke-width:2.5;"/>
   </g>
   <g id="patch_8">
    <path d="M 87.302 430.132 
L 87.302 271.368 
" style="fill:none;stroke:#ffffff;stroke-linecap:square;stroke-linejoin:miter;stroke-width:1.25;"/>
   </g>
   <g id="patch_9">
    <path d="M 992.448 430.132 
L 992.448 271.368 
" style="fill:none;stroke:#ffffff;stroke-linecap:square;stroke-linejoin:miter;stroke-width:1.25;"/>
   </g>
   <g id="patch_10">
    <path d="M 87.302 430.132 
L 992.448 430.132 
" style="fill:none;stroke:#ffffff;stroke-linecap:square;stroke-linejoin:miter;stroke-width:1.25;"/>
   </g>
   <g id="patch_11">
    <path d="M 87.302 271.368 
L 992.448 271.368 
" style="fill:none;stroke:#ffffff;stroke-linecap:square;stroke-linejoin:miter;stroke-width:1.25;"/>
   </g>
   <g id="text_33">
    <!-- Happiness Score by countries -->
    <g style="fill:#262626;" transform="translate(407.035937 265.368)scale(0.2 -0.2)">
     <use xlink:href="#ArialMT-48"/>
     <use x="72.216797" xlink:href="#ArialMT-61"/>
     <use x="127.832031" xlink:href="#ArialMT-70"/>
     <use x="183.447266" xlink:href="#ArialMT-70"/>
     <use x="239.0625" xlink:href="#ArialMT-69"/>
     <use x="261.279297" xlink:href="#ArialMT-6e"/>
     <use x="316.894531" xlink:href="#ArialMT-65"/>
     <use x="372.509766" xlink:href="#ArialMT-73"/>
     <use x="422.509766" xlink:href="#ArialMT-73"/>
     <use x="472.509766" xlink:href="#ArialMT-20"/>
     <use x="500.292969" xlink:href="#ArialMT-53"/>
     <use x="566.992188" xlink:href="#ArialMT-63"/>
     <use x="616.992188" xlink:href="#ArialMT-6f"/>
     <use x="672.607422" xlink:href="#ArialMT-72"/>
     <use x="705.908203" xlink:href="#ArialMT-65"/>
     <use x="761.523438" xlink:href="#ArialMT-20"/>
     <use x="789.306641" xlink:href="#ArialMT-62"/>
     <use x="844.921875" xlink:href="#ArialMT-79"/>
     <use x="894.921875" xlink:href="#ArialMT-20"/>
     <use x="922.705078" xlink:href="#ArialMT-63"/>
     <use x="972.705078" xlink:href="#ArialMT-6f"/>
     <use x="1028.320312" xlink:href="#ArialMT-75"/>
     <use x="1083.935547" xlink:href="#ArialMT-6e"/>
     <use x="1139.550781" xlink:href="#ArialMT-74"/>
     <use x="1167.333984" xlink:href="#ArialMT-72"/>
     <use x="1200.634766" xlink:href="#ArialMT-69"/>
     <use x="1222.851562" xlink:href="#ArialMT-65"/>
     <use x="1278.466797" xlink:href="#ArialMT-73"/>
    </g>
   </g>
  </g>
  <g id="axes_3">
   <g id="patch_12">
    <path d="M 87.302 664.948 
L 992.448 664.948 
L 992.448 506.184 
L 87.302 506.184 
z
" style="fill:#eaeaf2;"/>
   </g>
   <g id="matplotlib.axis_5">
    <g id="xtick_17">
     <g id="line2d_31">
      <path clip-path="url(#pccc67f1f09)" d="M 128.445 664.948 
L 128.445 506.184 
" style="fill:none;stroke:#ffffff;stroke-linecap:round;"/>
     </g>
     <g id="text_34">
      <!-- 0 -->
      <g style="fill:#262626;" transform="translate(124.774781 683.896313)scale(0.132 -0.132)">
       <use xlink:href="#ArialMT-30"/>
      </g>
     </g>
    </g>
    <g id="xtick_18">
     <g id="line2d_32">
      <path clip-path="url(#pccc67f1f09)" d="M 241.165548 664.948 
L 241.165548 506.184 
" style="fill:none;stroke:#ffffff;stroke-linecap:round;"/>
     </g>
     <g id="text_35">
      <!-- 20 -->
      <g style="fill:#262626;" transform="translate(233.82511 683.896313)scale(0.132 -0.132)">
       <use xlink:href="#ArialMT-32"/>
       <use x="55.615234" xlink:href="#ArialMT-30"/>
      </g>
     </g>
    </g>
    <g id="xtick_19">
     <g id="line2d_33">
      <path clip-path="url(#pccc67f1f09)" d="M 353.886096 664.948 
L 353.886096 506.184 
" style="fill:none;stroke:#ffffff;stroke-linecap:round;"/>
     </g>
     <g id="text_36">
      <!-- 40 -->
      <g style="fill:#262626;" transform="translate(346.545658 683.896313)scale(0.132 -0.132)">
       <use xlink:href="#ArialMT-34"/>
       <use x="55.615234" xlink:href="#ArialMT-30"/>
      </g>
     </g>
    </g>
    <g id="xtick_20">
     <g id="line2d_34">
      <path clip-path="url(#pccc67f1f09)" d="M 466.606644 664.948 
L 466.606644 506.184 
" style="fill:none;stroke:#ffffff;stroke-linecap:round;"/>
     </g>
     <g id="text_37">
      <!-- 60 -->
      <g style="fill:#262626;" transform="translate(459.266206 683.896313)scale(0.132 -0.132)">
       <use xlink:href="#ArialMT-36"/>
       <use x="55.615234" xlink:href="#ArialMT-30"/>
      </g>
     </g>
    </g>
    <g id="xtick_21">
     <g id="line2d_35">
      <path clip-path="url(#pccc67f1f09)" d="M 579.327192 664.948 
L 579.327192 506.184 
" style="fill:none;stroke:#ffffff;stroke-linecap:round;"/>
     </g>
     <g id="text_38">
      <!-- 80 -->
      <g style="fill:#262626;" transform="translate(571.986754 683.896313)scale(0.132 -0.132)">
       <use xlink:href="#ArialMT-38"/>
       <use x="55.615234" xlink:href="#ArialMT-30"/>
      </g>
     </g>
    </g>
    <g id="xtick_22">
     <g id="line2d_36">
      <path clip-path="url(#pccc67f1f09)" d="M 692.04774 664.948 
L 692.04774 506.184 
" style="fill:none;stroke:#ffffff;stroke-linecap:round;"/>
     </g>
     <g id="text_39">
      <!-- 100 -->
      <g style="fill:#262626;" transform="translate(681.037083 683.896313)scale(0.132 -0.132)">
       <use xlink:href="#ArialMT-31"/>
       <use x="55.615234" xlink:href="#ArialMT-30"/>
       <use x="111.230469" xlink:href="#ArialMT-30"/>
      </g>
     </g>
    </g>
    <g id="xtick_23">
     <g id="line2d_37">
      <path clip-path="url(#pccc67f1f09)" d="M 804.768288 664.948 
L 804.768288 506.184 
" style="fill:none;stroke:#ffffff;stroke-linecap:round;"/>
     </g>
     <g id="text_40">
      <!-- 120 -->
      <g style="fill:#262626;" transform="translate(793.757631 683.896313)scale(0.132 -0.132)">
       <use xlink:href="#ArialMT-31"/>
       <use x="55.615234" xlink:href="#ArialMT-32"/>
       <use x="111.230469" xlink:href="#ArialMT-30"/>
      </g>
     </g>
    </g>
    <g id="xtick_24">
     <g id="line2d_38">
      <path clip-path="url(#pccc67f1f09)" d="M 917.488836 664.948 
L 917.488836 506.184 
" style="fill:none;stroke:#ffffff;stroke-linecap:round;"/>
     </g>
     <g id="text_41">
      <!-- 140 -->
      <g style="fill:#262626;" transform="translate(906.478179 683.896313)scale(0.132 -0.132)">
       <use xlink:href="#ArialMT-31"/>
       <use x="55.615234" xlink:href="#ArialMT-34"/>
       <use x="111.230469" xlink:href="#ArialMT-30"/>
      </g>
     </g>
    </g>
    <g id="text_42">
     <!-- Countries ranked from most releases to least -->
     <g style="fill:#262626;" transform="translate(396.623125 700.827063)scale(0.144 -0.144)">
      <use xlink:href="#ArialMT-43"/>
      <use x="72.216797" xlink:href="#ArialMT-6f"/>
      <use x="127.832031" xlink:href="#ArialMT-75"/>
      <use x="183.447266" xlink:href="#ArialMT-6e"/>
      <use x="239.0625" xlink:href="#ArialMT-74"/>
      <use x="266.845703" xlink:href="#ArialMT-72"/>
      <use x="300.146484" xlink:href="#ArialMT-69"/>
      <use x="322.363281" xlink:href="#ArialMT-65"/>
      <use x="377.978516" xlink:href="#ArialMT-73"/>
      <use x="427.978516" xlink:href="#ArialMT-20"/>
      <use x="455.761719" xlink:href="#ArialMT-72"/>
      <use x="489.0625" xlink:href="#ArialMT-61"/>
      <use x="544.677734" xlink:href="#ArialMT-6e"/>
      <use x="600.292969" xlink:href="#ArialMT-6b"/>
      <use x="650.292969" xlink:href="#ArialMT-65"/>
      <use x="705.908203" xlink:href="#ArialMT-64"/>
      <use x="761.523438" xlink:href="#ArialMT-20"/>
      <use x="789.306641" xlink:href="#ArialMT-66"/>
      <use x="817.089844" xlink:href="#ArialMT-72"/>
      <use x="850.390625" xlink:href="#ArialMT-6f"/>
      <use x="906.005859" xlink:href="#ArialMT-6d"/>
      <use x="989.306641" xlink:href="#ArialMT-20"/>
      <use x="1017.089844" xlink:href="#ArialMT-6d"/>
      <use x="1100.390625" xlink:href="#ArialMT-6f"/>
      <use x="1156.005859" xlink:href="#ArialMT-73"/>
      <use x="1206.005859" xlink:href="#ArialMT-74"/>
      <use x="1233.789062" xlink:href="#ArialMT-20"/>
      <use x="1261.572266" xlink:href="#ArialMT-72"/>
      <use x="1294.873047" xlink:href="#ArialMT-65"/>
      <use x="1350.488281" xlink:href="#ArialMT-6c"/>
      <use x="1372.705078" xlink:href="#ArialMT-65"/>
      <use x="1428.320312" xlink:href="#ArialMT-61"/>
      <use x="1483.935547" xlink:href="#ArialMT-73"/>
      <use x="1533.935547" xlink:href="#ArialMT-65"/>
      <use x="1589.550781" xlink:href="#ArialMT-73"/>
      <use x="1639.550781" xlink:href="#ArialMT-20"/>
      <use x="1667.333984" xlink:href="#ArialMT-74"/>
      <use x="1695.117188" xlink:href="#ArialMT-6f"/>
      <use x="1750.732422" xlink:href="#ArialMT-20"/>
      <use x="1778.515625" xlink:href="#ArialMT-6c"/>
      <use x="1800.732422" xlink:href="#ArialMT-65"/>
      <use x="1856.347656" xlink:href="#ArialMT-61"/>
      <use x="1911.962891" xlink:href="#ArialMT-73"/>
      <use x="1961.962891" xlink:href="#ArialMT-74"/>
     </g>
    </g>
   </g>
   <g id="matplotlib.axis_6">
    <g id="ytick_12">
     <g id="line2d_39">
      <path clip-path="url(#pccc67f1f09)" d="M 87.302 658.060932 
L 992.448 658.060932 
" style="fill:none;stroke:#ffffff;stroke-linecap:round;"/>
     </g>
     <g id="text_43">
      <!-- 0 -->
      <g style="fill:#262626;" transform="translate(70.461562 662.785088)scale(0.132 -0.132)">
       <use xlink:href="#ArialMT-30"/>
      </g>
     </g>
    </g>
    <g id="ytick_13">
     <g id="line2d_40">
      <path clip-path="url(#pccc67f1f09)" d="M 87.302 626.532031 
L 992.448 626.532031 
" style="fill:none;stroke:#ffffff;stroke-linecap:round;"/>
     </g>
     <g id="text_44">
      <!-- 25000 -->
      <g style="fill:#262626;" transform="translate(41.099812 631.256187)scale(0.132 -0.132)">
       <use xlink:href="#ArialMT-32"/>
       <use x="55.615234" xlink:href="#ArialMT-35"/>
       <use x="111.230469" xlink:href="#ArialMT-30"/>
       <use x="166.845703" xlink:href="#ArialMT-30"/>
       <use x="222.460938" xlink:href="#ArialMT-30"/>
      </g>
     </g>
    </g>
    <g id="ytick_14">
     <g id="line2d_41">
      <path clip-path="url(#pccc67f1f09)" d="M 87.302 595.00313 
L 992.448 595.00313 
" style="fill:none;stroke:#ffffff;stroke-linecap:round;"/>
     </g>
     <g id="text_45">
      <!-- 50000 -->
      <g style="fill:#262626;" transform="translate(41.099812 599.727286)scale(0.132 -0.132)">
       <use xlink:href="#ArialMT-35"/>
       <use x="55.615234" xlink:href="#ArialMT-30"/>
       <use x="111.230469" xlink:href="#ArialMT-30"/>
       <use x="166.845703" xlink:href="#ArialMT-30"/>
       <use x="222.460938" xlink:href="#ArialMT-30"/>
      </g>
     </g>
    </g>
    <g id="ytick_15">
     <g id="line2d_42">
      <path clip-path="url(#pccc67f1f09)" d="M 87.302 563.474229 
L 992.448 563.474229 
" style="fill:none;stroke:#ffffff;stroke-linecap:round;"/>
     </g>
     <g id="text_46">
      <!-- 75000 -->
      <g style="fill:#262626;" transform="translate(41.099812 568.198385)scale(0.132 -0.132)">
       <use xlink:href="#ArialMT-37"/>
       <use x="55.615234" xlink:href="#ArialMT-35"/>
       <use x="111.230469" xlink:href="#ArialMT-30"/>
       <use x="166.845703" xlink:href="#ArialMT-30"/>
       <use x="222.460938" xlink:href="#ArialMT-30"/>
      </g>
     </g>
    </g>
    <g id="ytick_16">
     <g id="line2d_43">
      <path clip-path="url(#pccc67f1f09)" d="M 87.302 531.945328 
L 992.448 531.945328 
" style="fill:none;stroke:#ffffff;stroke-linecap:round;"/>
     </g>
     <g id="text_47">
      <!-- 100000 -->
      <g style="fill:#262626;" transform="translate(33.759375 536.669484)scale(0.132 -0.132)">
       <use xlink:href="#ArialMT-31"/>
       <use x="55.615234" xlink:href="#ArialMT-30"/>
       <use x="111.230469" xlink:href="#ArialMT-30"/>
       <use x="166.845703" xlink:href="#ArialMT-30"/>
       <use x="222.460938" xlink:href="#ArialMT-30"/>
       <use x="278.076172" xlink:href="#ArialMT-30"/>
      </g>
     </g>
    </g>
    <g id="text_48">
     <!-- GDP per capita -->
     <g style="fill:#262626;" transform="translate(26.897375 634.659875)rotate(-90)scale(0.144 -0.144)">
      <defs>
       <path d="M 2638 1797 
L 2638 2334 
L 4578 2338 
L 4578 638 
Q 4131 281 3656 101 
Q 3181 -78 2681 -78 
Q 2006 -78 1454 211 
Q 903 500 622 1047 
Q 341 1594 341 2269 
Q 341 2938 620 3517 
Q 900 4097 1425 4378 
Q 1950 4659 2634 4659 
Q 3131 4659 3532 4498 
Q 3934 4338 4162 4050 
Q 4391 3763 4509 3300 
L 3963 3150 
Q 3859 3500 3706 3700 
Q 3553 3900 3268 4020 
Q 2984 4141 2638 4141 
Q 2222 4141 1919 4014 
Q 1616 3888 1430 3681 
Q 1244 3475 1141 3228 
Q 966 2803 966 2306 
Q 966 1694 1177 1281 
Q 1388 869 1791 669 
Q 2194 469 2647 469 
Q 3041 469 3416 620 
Q 3791 772 3984 944 
L 3984 1797 
L 2638 1797 
z
" id="ArialMT-47" transform="scale(0.015625)"/>
       <path d="M 494 0 
L 494 4581 
L 2072 4581 
Q 2606 4581 2888 4516 
Q 3281 4425 3559 4188 
Q 3922 3881 4101 3404 
Q 4281 2928 4281 2316 
Q 4281 1794 4159 1391 
Q 4038 988 3847 723 
Q 3656 459 3429 307 
Q 3203 156 2883 78 
Q 2563 0 2147 0 
L 494 0 
z
M 1100 541 
L 2078 541 
Q 2531 541 2789 625 
Q 3047 709 3200 863 
Q 3416 1078 3536 1442 
Q 3656 1806 3656 2325 
Q 3656 3044 3420 3430 
Q 3184 3816 2847 3947 
Q 2603 4041 2063 4041 
L 1100 4041 
L 1100 541 
z
" id="ArialMT-44" transform="scale(0.015625)"/>
       <path d="M 494 0 
L 494 4581 
L 2222 4581 
Q 2678 4581 2919 4538 
Q 3256 4481 3484 4323 
Q 3713 4166 3852 3881 
Q 3991 3597 3991 3256 
Q 3991 2672 3619 2267 
Q 3247 1863 2275 1863 
L 1100 1863 
L 1100 0 
L 494 0 
z
M 1100 2403 
L 2284 2403 
Q 2872 2403 3119 2622 
Q 3366 2841 3366 3238 
Q 3366 3525 3220 3729 
Q 3075 3934 2838 4000 
Q 2684 4041 2272 4041 
L 1100 4041 
L 1100 2403 
z
" id="ArialMT-50" transform="scale(0.015625)"/>
      </defs>
      <use xlink:href="#ArialMT-47"/>
      <use x="77.783203" xlink:href="#ArialMT-44"/>
      <use x="150" xlink:href="#ArialMT-50"/>
      <use x="214.949219" xlink:href="#ArialMT-20"/>
      <use x="242.732422" xlink:href="#ArialMT-70"/>
      <use x="298.347656" xlink:href="#ArialMT-65"/>
      <use x="353.962891" xlink:href="#ArialMT-72"/>
      <use x="387.263672" xlink:href="#ArialMT-20"/>
      <use x="415.046875" xlink:href="#ArialMT-63"/>
      <use x="465.046875" xlink:href="#ArialMT-61"/>
      <use x="520.662109" xlink:href="#ArialMT-70"/>
      <use x="576.277344" xlink:href="#ArialMT-69"/>
      <use x="598.494141" xlink:href="#ArialMT-74"/>
      <use x="626.277344" xlink:href="#ArialMT-61"/>
     </g>
    </g>
   </g>
   <g id="line2d_44">
    <path clip-path="url(#pccc67f1f09)" d="M 128.445 575.71057 
L 134.081027 607.303336 
L 139.717055 604.676045 
L 145.353082 599.486224 
L 150.98911 606.991767 
L 156.625137 599.802169 
L 162.261164 645.517436 
L 167.897192 616.154936 
L 173.533219 592.062971 
L 179.169247 588.621264 
L 184.805274 620.730234 
L 190.441301 647.067195 
L 196.077329 592.966338 
L 201.713356 655.413008 
L 207.349384 599.517236 
L 212.985411 638.270228 
L 218.621438 596.538221 
L 224.257466 594.829519 
L 229.893493 596.625645 
L 235.529521 562.94501 
L 241.165548 646.550915 
L 246.801575 643.665832 
L 252.437603 558.857187 
L 258.07363 554.654044 
L 263.709658 652.845332 
L 269.345685 575.791587 
L 274.981712 582.176744 
L 280.61774 645.56 
L 286.253767 654.253237 
L 291.889795 649.953363 
L 303.161849 628.736456 
L 308.797877 633.364293 
L 314.433904 636.959496 
L 320.069932 603.700919 
L 325.705959 648.496715 
L 331.341986 628.878033 
L 336.978014 650.49223 
L 342.614041 579.7582 
L 348.250068 652.504921 
L 353.886096 649.260963 
L 359.522123 604.986 
L 365.158151 628.430575 
L 370.794178 628.418745 
L 376.430205 650.26217 
L 382.066233 653.581217 
L 387.70226 638.221661 
L 393.338288 651.232024 
L 398.974315 652.780156 
L 404.610342 642.619577 
L 410.24637 655.648466 
L 415.882397 652.234403 
L 421.518425 654.813568 
L 432.790479 641.767388 
L 438.426507 633.763146 
L 444.062534 653.665702 
L 449.698562 617.897879 
L 455.334589 628.142136 
L 460.970616 603.084517 
L 466.606644 645.666101 
L 472.242671 513.400545 
L 477.878699 622.92718 
L 483.514726 633.33989 
L 489.150753 654.63654 
L 494.786781 643.450439 
L 500.422808 635.575919 
L 506.058836 620.452502 
L 511.694863 637.642651 
L 517.33089 617.703371 
L 522.966918 653.049148 
L 528.602945 654.020062 
L 534.238973 653.877109 
L 539.875 647.615886 
L 545.511027 573.633055 
L 551.147055 653.446324 
L 556.783082 625.33875 
L 562.41911 645.685977 
L 568.055137 655.283715 
L 573.691164 652.38129 
L 579.327192 655.24873 
L 584.963219 656.409586 
L 590.599247 655.769979 
L 596.235274 653.201596 
L 601.871301 655.988701 
L 607.507329 652.015467 
L 613.143356 657.059145 
L 618.779384 657.079992 
L 624.415411 653.149132 
L 630.051438 648.020452 
L 635.687466 657.362377 
L 641.323493 652.587716 
L 646.959521 652.230948 
L 652.595548 644.063058 
L 658.231575 654.864027 
L 663.867603 651.808801 
L 669.50363 657.425851 
L 675.139658 656.962729 
L 680.775685 649.657471 
L 686.411712 656.71017 
L 692.04774 655.885639 
L 697.683767 656.214612 
L 703.319795 657.068528 
L 708.955822 639.224179 
L 714.591849 650.465972 
L 720.227877 650.357147 
L 725.863904 645.119352 
L 731.499932 646.825381 
L 737.135959 657.166091 
L 742.771986 655.942896 
L 748.408014 656.645763 
L 754.044041 657.541903 
L 759.680068 657.276631 
L 765.316096 656.236253 
L 770.952123 657.395634 
L 776.588151 653.878711 
L 782.224178 656.52304 
L 787.860205 656.159802 
L 793.496233 648.26552 
L 799.13226 652.136399 
L 804.768288 657.026746 
L 810.404315 651.309661 
L 816.040342 656.415047 
L 821.67637 651.020831 
L 827.312397 657.400893 
L 832.948425 655.185534 
L 838.584452 656.952363 
L 844.220479 648.713445 
L 849.856507 657.084381 
L 855.492534 656.332959 
L 861.128562 656.84664 
L 866.764589 656.650795 
L 872.400616 657.204241 
L 878.036644 655.720554 
L 883.672671 650.550609 
L 889.308699 656.440724 
L 894.944726 657.421399 
L 900.580753 656.981685 
L 906.216781 657.328553 
L 911.852808 648.367749 
L 917.488836 657.731455 
L 923.124863 657.470824 
L 928.76089 636.119364 
L 934.396918 636.119364 
L 940.032945 656.285463 
L 945.668973 652.48975 
L 951.305 656.456123 
L 951.305 656.456123 
" style="fill:none;stroke:#808080;stroke-linecap:round;stroke-width:1.5;"/>
   </g>
   <g id="line2d_45">
    <path clip-path="url(#pccc67f1f09)" d="M 162.261164 605.641078 
L 167.897192 611.418845 
L 179.169247 606.94811 
L 184.805274 609.982968 
L 190.441301 615.708029 
L 196.077329 614.731482 
L 201.713356 616.145135 
L 207.349384 613.768321 
L 212.985411 620.369357 
L 218.621438 621.500351 
L 224.257466 617.800249 
L 229.893493 610.594314 
L 235.529521 606.305552 
L 241.165548 605.039539 
L 246.801575 611.346481 
L 252.437603 600.001761 
L 258.07363 594.018307 
L 263.709658 602.306281 
L 269.345685 599.329987 
L 274.981712 602.077377 
L 280.61774 601.935818 
L 286.253767 603.448304 
L 291.889795 616.462044 
L 297.525822 628.550635 
L 303.161849 625.10651 
L 308.797877 633.331182 
L 314.433904 641.15729 
L 320.069932 635.177421 
L 325.705959 634.355061 
L 331.341986 631.344299 
L 336.978014 632.946877 
L 342.614041 625.949984 
L 348.250068 628.684359 
L 353.886096 630.441712 
L 359.522123 630.625295 
L 365.158151 627.758703 
L 376.430205 627.660225 
L 382.066233 638.20637 
L 387.70226 636.165904 
L 393.338288 636.447484 
L 398.974315 643.275221 
L 404.610342 645.302221 
L 410.24637 649.192181 
L 421.518425 649.649979 
L 427.154452 651.077658 
L 432.790479 649.725568 
L 438.426507 647.008852 
L 444.062534 648.58687 
L 449.698562 643.193929 
L 455.334589 639.752176 
L 460.970616 632.362312 
L 466.606644 631.998124 
L 472.242671 613.660004 
L 477.878699 612.112009 
L 483.514726 609.208321 
L 489.150753 614.456701 
L 494.786781 616.643602 
L 500.422808 621.285231 
L 506.058836 617.683288 
L 511.694863 635.43216 
L 517.33089 634.685902 
L 522.966918 637.50151 
L 528.602945 637.413442 
L 534.238973 638.902966 
L 539.875 640.622961 
L 545.511027 633.934469 
L 551.147055 636.192136 
L 556.783082 637.282905 
L 562.41911 636.231023 
L 568.055137 636.411545 
L 573.691164 636.197857 
L 579.327192 637.288263 
L 584.963219 649.113482 
L 590.599247 649.445432 
L 596.235274 653.425839 
L 601.871301 654.897657 
L 607.507329 654.430764 
L 613.143356 655.099029 
L 618.779384 655.360638 
L 624.415411 654.894859 
L 630.051438 653.787784 
L 635.687466 654.382181 
L 641.323493 653.896326 
L 646.959521 653.927109 
L 652.595548 652.070525 
L 658.231575 651.753959 
L 663.867603 651.562483 
L 669.50363 652.906111 
L 675.139658 652.849019 
L 680.775685 652.430412 
L 686.411712 653.070301 
L 692.04774 654.759241 
L 697.683767 654.952182 
L 703.319795 655.703571 
L 708.955822 653.103333 
L 714.591849 652.175224 
L 720.227877 652.275178 
L 725.863904 650.619347 
L 731.499932 649.325024 
L 737.135959 649.46095 
L 742.771986 649.300145 
L 748.408014 651.788943 
L 759.680068 653.788288 
L 770.952123 656.886453 
L 776.588151 656.416827 
L 782.224178 656.499705 
L 787.860205 656.430282 
L 793.496233 655.105084 
L 799.13226 654.370766 
L 804.768288 654.483693 
L 810.404315 653.614268 
L 816.040342 653.976602 
L 821.67637 653.190572 
L 827.312397 653.367871 
L 832.948425 654.356444 
L 838.584452 655.044439 
L 844.220479 653.856825 
L 849.856507 654.681785 
L 855.492534 654.670058 
L 861.128562 655.502316 
L 866.764589 655.395159 
L 872.400616 655.683546 
L 878.036644 655.507573 
L 883.672671 655.770025 
L 889.308699 655.678075 
L 894.944726 655.833566 
L 906.216781 655.949681 
L 911.852808 654.687325 
L 917.488836 654.974596 
L 923.124863 655.963198 
L 928.76089 653.060147 
L 934.396918 650.016999 
L 940.032945 649.917539 
L 945.668973 649.226281 
L 951.305 650.381763 
L 951.305 650.381763 
" style="fill:none;stroke:#4c72b0;stroke-linecap:round;stroke-width:2.5;"/>
   </g>
   <g id="patch_13">
    <path d="M 87.302 664.948 
L 87.302 506.184 
" style="fill:none;stroke:#ffffff;stroke-linecap:square;stroke-linejoin:miter;stroke-width:1.25;"/>
   </g>
   <g id="patch_14">
    <path d="M 992.448 664.948 
L 992.448 506.184 
" style="fill:none;stroke:#ffffff;stroke-linecap:square;stroke-linejoin:miter;stroke-width:1.25;"/>
   </g>
   <g id="patch_15">
    <path d="M 87.302 664.948 
L 992.448 664.948 
" style="fill:none;stroke:#ffffff;stroke-linecap:square;stroke-linejoin:miter;stroke-width:1.25;"/>
   </g>
   <g id="patch_16">
    <path d="M 87.302 506.184 
L 992.448 506.184 
" style="fill:none;stroke:#ffffff;stroke-linecap:square;stroke-linejoin:miter;stroke-width:1.25;"/>
   </g>
   <g id="text_49">
    <!-- GDP per capita by countries -->
    <g style="fill:#262626;" transform="translate(414.998437 500.184)scale(0.2 -0.2)">
     <use xlink:href="#ArialMT-47"/>
     <use x="77.783203" xlink:href="#ArialMT-44"/>
     <use x="150" xlink:href="#ArialMT-50"/>
     <use x="214.949219" xlink:href="#ArialMT-20"/>
     <use x="242.732422" xlink:href="#ArialMT-70"/>
     <use x="298.347656" xlink:href="#ArialMT-65"/>
     <use x="353.962891" xlink:href="#ArialMT-72"/>
     <use x="387.263672" xlink:href="#ArialMT-20"/>
     <use x="415.046875" xlink:href="#ArialMT-63"/>
     <use x="465.046875" xlink:href="#ArialMT-61"/>
     <use x="520.662109" xlink:href="#ArialMT-70"/>
     <use x="576.277344" xlink:href="#ArialMT-69"/>
     <use x="598.494141" xlink:href="#ArialMT-74"/>
     <use x="626.277344" xlink:href="#ArialMT-61"/>
     <use x="681.892578" xlink:href="#ArialMT-20"/>
     <use x="709.675781" xlink:href="#ArialMT-62"/>
     <use x="765.291016" xlink:href="#ArialMT-79"/>
     <use x="815.291016" xlink:href="#ArialMT-20"/>
     <use x="843.074219" xlink:href="#ArialMT-63"/>
     <use x="893.074219" xlink:href="#ArialMT-6f"/>
     <use x="948.689453" xlink:href="#ArialMT-75"/>
     <use x="1004.304688" xlink:href="#ArialMT-6e"/>
     <use x="1059.919922" xlink:href="#ArialMT-74"/>
     <use x="1087.703125" xlink:href="#ArialMT-72"/>
     <use x="1121.003906" xlink:href="#ArialMT-69"/>
     <use x="1143.220703" xlink:href="#ArialMT-65"/>
     <use x="1198.835938" xlink:href="#ArialMT-73"/>
    </g>
   </g>
  </g>
 </g>
 <defs>
  <clipPath id="p78595f682b">
   <rect height="158.764" width="905.146" x="87.302" y="36.552"/>
  </clipPath>
  <clipPath id="p0d329ab2f4">
   <rect height="158.764" width="905.146" x="87.302" y="271.368"/>
  </clipPath>
  <clipPath id="pccc67f1f09">
   <rect height="158.764" width="905.146" x="87.302" y="506.184"/>
  </clipPath>
 </defs>
</svg>
